<?xml version="1.0" encoding="UTF-8" standalone="no"?>
<svg xmlns="http://www.w3.org/2000/svg" xmlns:xlink="http://www.w3.org/1999/xlink" xmlns:serif="http://www.serif.com/" width="100%" height="100%" viewBox="0 0 760 580" version="1.1" xml:space="preserve" style="fill-rule:evenodd;clip-rule:evenodd;stroke-linejoin:round;stroke-miterlimit:2;">
    <g id="Artboard1" transform="matrix(0.703704,0,0,0.537037,0,0)">
        <rect x="0" y="0" width="1080" height="1080" style="fill:none;"></rect>
        <clipPath id="_clip1">
            <rect x="0" y="0" width="1080" height="1080"></rect>
        </clipPath>
        <g clip-path="url(#_clip1)">
            <g transform="matrix(0.682678,0.483935,-0.319461,0.773781,764.275,-349.972)">
                <path d="M481.51,307.564L590.008,672.87L196.645,726.369L481.51,307.564Z" style="fill:white;"></path>
            </g>
            <g transform="matrix(-0.837556,-0.7345,-0.304219,0.595634,1032.11,669.826)">
                <path d="M419.409,283.596L640,448.439L599.01,583.224L419.409,283.596Z" style="fill:rgb(254,52,4);"></path>
            </g>
            <g transform="matrix(-0.837556,-0.7345,-0.304219,0.595634,1025.01,800.171)">
                <path d="M534.561,503.749L642.549,449.342L528.338,871.219L534.561,503.749Z" style="fill:rgb(254,52,4);"></path>
            </g>
            <g transform="matrix(-1.00484,1.31668,-0.869183,-1.13893,884.693,112.1)">
                <path d="M346.236,202.3L515.457,228.376L445.231,241.538L346.236,202.3Z" style="fill:white;"></path>
            </g>
            <g transform="matrix(-0.335234,-1.24539,-0.515824,0.238404,623.985,1773.87)">
                <path d="M458.013,224.024L640,448.439L443.935,519.283L458.013,224.024Z" style="fill:rgb(254,52,4);"></path>
            </g>
            <g transform="matrix(-0.710526,-1.6126,1.06453,-0.805345,140.402,1704.83)">
                <path d="M531.954,381.209L557.217,584.959L300.955,360.519L531.954,381.209Z" style="fill:rgb(254,52,4);"></path>
            </g>
            <g transform="matrix(1.39978,0.320964,-0.244946,1.8342,-25.1547,-1075.21)">
                <g>
                    <g transform="matrix(-0.589391,-0.394454,-0.21408,0.319877,687.016,764.005)">
                        <path d="M458.013,224.024L640,448.439L443.935,519.283L458.013,224.024Z" style="fill:rgb(254,52,4);"></path>
                    </g>
                    <g transform="matrix(0.0661461,-0.99781,0.863106,0.0572164,178.734,1077.53)">
                        <path d="M434.862,198.931L495.706,263.784L396.471,228.521L434.862,198.931Z" style="fill:rgb(254,52,4);"></path>
                    </g>
                    <g transform="matrix(0.0661461,-0.99781,0.863106,0.0572164,123.734,1072.53)">
                        <path d="M434.862,198.931L507.679,245.384L437.833,250.737L434.862,198.931Z" style="fill:rgb(254,52,4);"></path>
                    </g>
                    <g transform="matrix(0.0661461,-0.99781,0.863106,0.0572164,115.734,1177.53)">
                        <path d="M435.06,202.391L537.572,258.155L499.319,290.155L435.06,202.391Z" style="fill:rgb(254,52,4);"></path>
                    </g>
                </g>
            </g>
            <g transform="matrix(-0.710526,-1.6126,1.06453,-0.805345,367.77,1909.66)">
                <path d="M620.566,400.307L557.217,584.959L353.031,462.023L620.566,400.307Z" style="fill:rgb(254,52,4);"></path>
            </g>
            <g transform="matrix(-0.524847,0.782769,0.484811,0.249605,721.299,-80.0735)">
                <path d="M419.409,283.596L640,448.439L610.555,756L419.409,283.596Z" style="fill:rgb(254,52,4);"></path>
            </g>
            <g transform="matrix(-0.524847,0.782769,0.484811,0.249605,721.299,143.375)">
                <path d="M443.446,235.653L546.632,359.661L408.961,537.758L443.446,235.653Z" style="fill:rgb(254,52,4);"></path>
            </g>
            <g transform="matrix(-1.22022,0.703878,-0.694821,-0.924901,1732.33,467.455)">
                <path d="M594.749,323.856L557.217,584.959L449.261,333.931L594.749,323.856Z" style="fill:rgb(254,52,4);"></path>
            </g>
        </g>
    </g>
</svg>
