<?xml version="1.0" encoding="UTF-8"?>
<svg xmlns="http://www.w3.org/2000/svg" version="1.1" viewBox="0 0 1093.09 702.91">
  <!-- Generator: Adobe Illustrator 30.1.0, SVG Export Plug-In . SVG Version: 2.1.1 Build 136)  -->
  <defs>
    <style>
      .st0 {
        fill: #e7836f;
      }

      .st1 {
        fill: #e8a532;
      }

      .st2 {
        fill: #f8afba;
      }

      .st3 {
        fill: #fff;
      }

      .st4 {
        fill: #e27a42;
      }

      .st5 {
        stroke-width: 3px;
      }

      .st5, .st6, .st7 {
        fill: none;
        stroke: #000;
        stroke-linecap: round;
        stroke-linejoin: round;
      }

      .st6 {
        stroke-width: 4px;
      }

      .st8 {
        fill: #f6adb8;
      }

      .st9 {
        fill: #be3800;
      }

      .st10 {
        fill: #4b2200;
      }

      .st11 {
        fill: #371900;
      }

      .st7 {
        stroke-width: 13px;
      }
    </style>
  </defs>
  <g id="tails_-_vector">
    <g id="_x39_1" data-name="_x39_">
      <path class="st9" d="M561.55,572c4.52-21.11,16-94,52-149s107-110,202-95,120.01,40.83,164,56c29,10,60,14,75,4s21,0,21,25-14,88-57,116-103,55-200,20-136-50-182-18c-57.61,40.08-61,67-63,78s-19-4.33-12-37Z"/>
      <path class="st3" d="M966.06,555.5c20.17-6.95,37.38-16.66,52.49-26.5,43-28,57-91,57-116s-6-35-21-25-46,6-75-4c-14.26-4.92-26.52-10.95-39.82-17.38,0,0-14.18,20.81,10.82,44.09,0,0-28.61,22.96-29,58.3-.5,44.99,31.78,58.89,57,63.99l-12.49,22.5Z"/>
      <path class="st6" d="M561.55,572c4.52-21.11,16-94,52-149s107-110,202-95,120.01,40.83,164,56c29,10,60,14,75,4s21,0,21,25-14,88-57,116-103,55-200,20-136-50-182-18c-57.61,40.08-61,67-63,78s-19-4.33-12-37Z"/>
    </g>
  </g>
  <g id="Static">
    <g id="Static_Fox">
      <g id="vectorized_static">
        <path class="st9" d="M586.1,477.56c-34.29,2.27-61.54-1.21-61.54-1.21-17.84-2.36-42.68-6.73-65.42-15.29v-.03c-4.1,12.97-15.1,40.47-26.93,63.8-11.83,23.33-26.17,58-25.67,84.83s4.5,48.67,29.73,58.04l4.76,3.23c13.91,8.2,23.95,3.25,27.8.01,7.05-5.94,6.38-15.94,2.21-22.44l-4.16-7.17c13,23.83,27.83,37.5,46.33,43.67s25.5-.17,26-4,1.47-11.63,1.5-19.72l5.73-.11c.42,7.12-.24,6.83.1,14s6.33,13.17,18.17,10.83,38.86-20.7,53.5-45.67c2.57-4.39,4.99-8.54,7.26-12.5l-5.45,10.73c-1.08,2.15-1.95,3.92-2.81,5.44-3.81,6.72-4.16,19.61,2.89,25.56,3.93,3.32,12.28,9.04,27.33,1.11,5.02-2.64,10.31-6.28,15.08-12.5.57-.74,1.36-1.05,1.36-1.05,0,0,12.44-8.67,20.67-28,9.14-21.49,2-59.56-12.09-88.3s-22.35-47.48-26.77-76.89c0,0-30.21,11.68-59.59,13.63Z"/>
        <g>
          <path class="st10" d="M546.61,637c-.08,14.5-.28,33.55-.07,38.17.33,7.17,6.33,13.17,18.17,10.83s38.86-20.7,53.5-45.67c1.69-2.88,3.31-5.66,4.87-8.35.03-.05-.02-.1-.07-.07-2.32,1.75-24.86,18.41-43.8,18.26-20-.17-32.6-13.17-32.6-13.17Z"/>
          <path class="st10" d="M458.48,620.95c2.37,7.46,5.15,14.42,8.4,20.38,13,23.83,27.83,37.5,46.33,43.67s25.5-.17,26-4c.33-2.53,1.24-25.33,1.96-42.44,0,0-11.64,10.44-27.46,9.77-27.5-1.17-55.23-27.38-55.23-27.38Z"/>
        </g>
        <path class="st3" d="M478.21,478.56c-5.33,1-11.67,4.44-14.33,10.11-2.17,4.62,5.95,4.14,9.02,3.81.32-.03.49.36.24.57-3.83,3.16-18.64,16.38-16.6,30.62s14.25,6.15,16.96,4.09c.22-.16.57,0,.51.26-3.47,16.62.02,48.98,17.74,58.63,15.84,8.62,9.53-11.77,7.88-18.61-.02-.09.11-.13.14-.04,2.36,6.56,11.83,34.85,25.35,44.63,15.67,11.33,21.61,11.04,37.34,1.37,13.79-8.47,19.33-15.92,20.49-17.63.04-.06.12,0,.1.06-3.99,12.15,4.48,8.51,4.48,8.51,9.25-3.23,20.2-19.29,30.66-38.11,15.19-27.33,10.34-46.83,10.34-46.83,2,.67,16,16.67,12.67-2s-14-29.33-18.73-35.67-10.2-8.53-10.2-8.53c0,0-31.41-5.59-70.24-5.59-48.57,0-63.83,10.33-63.83,10.33Z"/>
        <g>
          <path class="st10" d="M457.61,618.13c-3.18-10.95-14.73-21.46-29.4-13.8-14.67,7.67-12.17,25.17-11.5,29,.67,3.83,4.17,25,23.33,37,14.42,9.03,24.85,3.92,28.78.61,7.05-5.94,6.38-15.94,2.21-22.44-5.47-8.54-12.5-27.18-13.43-30.37Z"/>
          <path class="st10" d="M633.7,614.47c5.11-7.99,10.1-23.58,30.07-14.85,12.56,5.49,11.5,27.49,9.91,33.71-6.01,23.57-16.63,32.27-26.24,37.33-15.05,7.93-23.4,2.2-27.33-1.11-7.05-5.94-6.7-18.84-2.89-25.56,2.93-5.16,6.05-13.2,16.48-29.53Z"/>
        </g>
        <path class="st9" d="M671.16,454.58c34.92-14.28,58.02-32.45,54.72-32.92-6.22-.89-14.17-5.01-17.37-5.75-.15-.04-.15-.25,0-.28,4.39-.94,19.48-3.25,17.59-6.08-1.33-2-10.19-5.15-17.78-16-7.93-11.34-10.67-38.22-11.56-45.78l4.12,26.07c17.78-19.56,37.22-73.19,46.11-120.3s2.22-112-6.22-115.56c-8.44-3.56-45.78,16.44-66.67,28.44s-52.89,37.78-73.66,53.22l14.1,5.01c-29.78-12.89-63.8-11.8-96.89-5.33l7.48-1.36s-26.14-28.42-63.92-58.64c-37.78-30.22-72.89-46.22-79.56-44s-16,54.22-16.44,90.67,9.04,80.15,43.56,148l5.33-16.89s-8.89,34.22-14.67,43.56-19.27,10.88-23.44,11.9c-5.08,1.24,12.4,11,17.3,13.66.23.12.1.46-.15.42-4.58-.78-18.58-2.83-13.72,2.03,5.78,5.78,30.67,26.67,57.78,42.22,27.11,15.56,57.7,19.09,83.75,23.4,12.96,2.14,34.59,3.55,63.91,1.95,34.49-1.89,68.29-14.3,86.28-21.65Z"/>
        <path class="st3" d="M717.67,403.83c4.61,2.47,7.66,4.57,8.43,5.72,1.89,2.83-13.2,5.14-17.59,6.08-.15.03-.15.25,0,.28,3.2.73,11.15,4.86,17.37,5.75,3.3.47-19.79,18.69-54.72,32.92s-61.52,20.83-85.05,22.97c-34.22,3.11-61.54-1.21-61.54-1.21-23.85-3.16-60.24-9.91-87.35-25.46-27.11-15.56-52-36.44-57.78-42.22-4.86-4.86,9.14-2.8,13.72-2.03.25.04.37-.3.15-.42-4.91-2.66-22.39-12.42-17.3-13.66,1.67-.41,4.82-.9,8.38-1.94,0,0,29.98-7.31,70.86-9.09,28.46-1.23,76.11,6.68,90.3,7.57,12.34.78,49.68-11.71,94.51-6.13s72.75,18.24,77.62,20.85Z"/>
        <g>
          <path class="st11" d="M680.37,162.88c21.36-11.98,52.74-28.11,60.4-24.88,6,2.52,11.09,35.96,10.37,72.01,0,0-28.79-1.29-44.92-12.45-22.78-15.78-25.85-34.67-25.85-34.67Z"/>
          <path class="st11" d="M365.77,191.78c2.17-34.41,10.05-74.51,15.89-76.45s35.64,11.02,69.35,36.12c0,0-15.77,20.74-40.02,30.32-25.33,10.01-45.22,10.01-45.22,10.01Z"/>
        </g>
        <g>
          <path class="st4" d="M691.43,311.78c-4.74-19.31-9.39-37.04-18.22-52.89-2.22-3.99,19.11-26.91,34.67-59.11,9.34-19.34,30.22-52,31.11-47.11s0,13.78,0,13.78c0,0,3.56,54.31-7.62,101.41-8.64,36.41-24.28,77.06-33.44,89.38,0,0-.27-20.13-6.5-45.46Z"/>
          <path class="st4" d="M382.99,143.58s1.33-10.22,4-12,23.56,48.64,40.89,80.19c17.48,31.82,38.22,40.89,28.44,47.11-9.78,6.22-27.56,40.44-32.89,52.89-5.33,12.44-9.33,25.33-9.33,25.33,0,0-25.64-34.58-35.27-94.96-8.08-50.64,3.53-93.21,4.16-98.57Z"/>
        </g>
        <g>
          <path class="st3" d="M405.43,165.61c7,15.33,15.05,32.69,22.45,46.16,17.48,31.82,38.22,40.89,28.44,47.11-6.26,3.98-16.03,19.33-23.26,33.33-5.08,9.84-18.52,13.71-24.3,4.41s4.44-22.18,4.44-22.18c0,0-14.22,4-16.44-4-2.22-8,10.67-13.33,18.22-12.89,0,0-27.12-5.33-27.11-23.79,0-17.55,15.11-10.93,24.44-1.79,0,0-6.67-13.77-7.56-40.64-.57-17.33.66-25.72.66-25.72Z"/>
          <path class="st3" d="M715.79,210.01c-4.27,15.38-13.14,32.44-13.14,32.44,0,0,13.23-10.88,21.62-2.56,13.47,13.37-16.61,30.22-16.61,30.22,2.67-.89,15.11,5.33,10.22,16.44s-18.99,2.54-18.99,2.54c0,0,11.12,11.68,6.79,22.35s-12.02,3.78-12.02,3.78c-3.31-2.57-3.83-10.24-4.32-15.32-.65-6.7-7.29-25.17-16.12-41.01-2.22-3.99,19.11-26.91,34.67-59.11,4.21-8.71,10.75-20.11,16.76-29.58,0,0-5.03,26.05-8.85,39.81Z"/>
        </g>
        <g>
          <path class="st6" d="M408.77,354c-27.63-47.29-41.82-85.72-43.56-148-1.02-36.43,9.78-88.44,16.44-90.67s41.78,13.78,79.56,44c37.78,30.22,63.92,58.64,63.92,58.64"/>
          <path class="st6" d="M517.66,219.33c33.09-6.47,67.11-7.56,96.89,5.33"/>
          <path class="st6" d="M600.45,219.66c20.77-15.44,52.77-41.22,73.66-53.22s58.22-32,66.67-28.44c8.44,3.56,15.11,68.44,6.22,115.56s-28.33,100.74-46.11,120.3"/>
          <path class="st6" d="M691.43,311.78c-3.56-18.67-9.39-37.04-18.22-52.89-2.22-3.99,19.11-26.91,34.67-59.11,9.34-19.34,30.22-52,31.11-47.11s1.78,14.44,1.78,14.44"/>
          <path class="st6" d="M593.9,475.51c23.56-1.89,41.87-6.51,77.26-20.92s58.02-32.45,54.72-32.92c-6.22-.89-14.17-5.01-17.37-5.75-.15-.04-.15-.25,0-.28,4.39-.94,19.48-3.25,17.59-6.08-1.33-2-10.19-5.15-17.78-16-7.93-11.34-10.67-38.22-11.56-45.78"/>
          <path class="st6" d="M414.1,337.11s-8.89,34.22-14.67,43.56-19.27,10.88-23.44,11.9c-5.08,1.24,12.4,11,17.3,13.66.23.12.1.46-.15.42-4.58-.78-18.58-2.83-13.72,2.03,5.78,5.78,30.67,26.67,57.78,42.22,27.11,15.56,48.18,19.72,75.17,21.78"/>
          <path class="st6" d="M423.43,311.78c5.33-12.44,23.11-46.67,32.89-52.89,9.78-6.22-10.96-15.29-28.44-47.11-17.33-31.56-38.22-84.44-40.89-82.67s-4,7.47-4,7.47"/>
          <path class="st6" d="M459.16,462.03c-4.11,12.97-15.11,39.47-26.95,62.8-11.83,23.33-22.85,50.19-25.68,76.88-4,37.67,9.6,55.4,29.74,66"/>
          <path class="st6" d="M446.71,554.83c1.67,22.67,7.17,62.67,20.17,86.5s27.83,37.5,46.33,43.67,26.68,1.02,27.18-2.82,2.33-54.33,2.83-60.83"/>
          <path class="st6" d="M545.63,621.18c.33,5.83-.33,47.67,0,54.83s6.33,13.17,18.17,10.83,39.77-21.54,54.41-46.51c18.67-31.83,29.33-51.17,32.33-77.33"/>
          <path class="st6" d="M457.61,618.13c-3.18-10.95-14.73-21.46-29.4-13.8-14.67,7.67-12.17,25.17-11.5,29,.67,3.83,4.17,25,23.33,37,14.42,9.03,24.85,3.92,28.78.61,7.05-5.94,6.38-15.94,2.21-22.44-5.47-8.54-12.5-27.18-13.43-30.37Z"/>
          <path class="st6" d="M645.69,464.93c4.42,29.4,12.98,47.75,26.77,75.89s21.23,66.8,12.09,88.3c-8.22,19.33-20.67,28-20.67,28"/>
          <path class="st6" d="M633.7,614.47c5.11-7.99,10.1-23.58,30.07-14.85,12.56,5.49,11.5,27.49,9.91,33.71-6.01,23.57-16.63,32.27-26.24,37.33-15.05,7.93-23.4,2.2-27.33-1.11-7.05-5.94-6.7-18.84-2.89-25.56,2.93-5.16,6.05-13.2,16.48-29.53Z"/>
          <path class="st6" d="M612.28,473.81c8.05,6.44,26.7,25.56,28.93,44.19,2.25,18.83-10.67,2.67-12.67,2,0,0,4.85,19.49-10.34,46.83-10.46,18.83-21.41,34.88-30.66,38.11,0,0-8.47,3.64-4.48-8.51.02-.06-.06-.11-.1-.06-1.16,1.71-6.7,9.16-20.49,17.63-15.73,9.67-21.68,9.96-37.34-1.37-13.52-9.78-23-37.07-25.35-43.63-.03-.09-.17-.05-.14.04,1.65,6.84,7.96,27.22-7.88,18.61-17.72-9.64-21.21-42-17.74-58.63.06-.27-.3-.43-.51-.26-2.71,2.06-14.89,10.41-16.96-4.09s12.77-27.46,16.6-30.62c.25-.2.08-.6-.24-.57-3.08.33-11.2.81-9.02-3.81,2.67-5.67,13.67-12.06,34.75-17.06"/>
        </g>
        <path class="st2" d="M441.88,394.22c-9.74-.96-17.71,1.63-19.33,9.44-1.22,5.89,4.78,8.44,10.3,9s17.48,1.78,20-4.49c2.07-5.16,0-12.87-10.96-13.96Z"/>
        <path class="st8" d="M651.64,394.77c6.67-1.71,18.48.92,21.43,5.38s1.91,10.11-3.83,11.88c-5.1,1.58-17.48,1.64-21.27-4.17-2.77-4.25-1.88-11.67,3.67-13.09Z"/>
        <g>
          <g>
            <path class="st1" d="M489.19,259.79c-.4-.02-.76-.23-1.01-.54-5.65-7.25-12.84-11.79-24.56-40.71-7.27-17.94-5.57-24.94-4.38-28.61s6.43-10.35,14.26-7.43c6.88,2.57,6.91,8.72,10.87,20.21.45,1.32,2.25,1.52,2.96.31.63-1.07,1.5-2.53,2.67-4.5,4.44-7.46,11.38-9.57,16.46-5.83,5.58,4.11,5.7,8.32,3.21,17.13-1.96,6.9-7.35,15.51-9.58,18.91-.6.9-.56,2.08.09,2.95,4.42,5.95,8.01,9.55,11.75,12.95.42.39.58.99.38,1.53-.79,2.1-3.24,7.36-8.75,10.51-5.82,3.33-12.33,3.24-14.35,3.12Z"/>
            <path class="st1" d="M619.74,245.57c3.95-3.56,7.72-7.31,12.48-13.77.29-.39.31-.93.04-1.33-1.73-2.59-7.92-12.2-10.03-19.76-2.45-8.82-2.31-13.03,3.29-17.11,5.11-3.72,12.03-1.58,16.43,5.91,2.73,4.64,3.76,6.42,4.15,7.1.1.17.35.14.42-.04,5.08-13.31,4.57-20.27,12-23,7.84-2.88,13.05,3.82,14.22,7.5,1.17,3.67,2.83,10.68-4.52,28.59-11.51,28.04-18.65,33.09-24.26,39.98-.61.75-1.53,1.16-2.49,1.14-2.72-.06-8.4-.64-13.26-4.2-5.17-3.79-7.79-7.97-8.71-9.66-.24-.44-.14-.99.23-1.32Z"/>
          </g>
          <g>
            <path class="st5" d="M488.56,259.74c-5.71-7.55-12.96-11.63-24.94-41.2-7.27-17.94-5.57-24.94-4.38-28.61s6.43-10.35,14.26-7.43c7.42,2.77,6.87,9.72,11.89,23.05.07.18.32.22.42.05.4-.68,1.44-2.46,4.18-7.08,4.44-7.46,11.38-9.57,16.46-5.83,5.58,4.11,5.7,8.32,3.21,17.13-2.14,7.54-8.38,17.13-10.12,19.71-.27.41-.26.94.03,1.34,4.97,6.81,8.87,10.64,13.03,14.38"/>
            <path class="st5" d="M643.09,260.73c5.74-7.53,13.01-11.57,25.13-41.08,7.35-17.9,5.69-24.92,4.52-28.59-1.17-3.67-6.38-10.38-14.22-7.5-7.44,2.73-6.92,9.68-12,23-.07.18-.32.21-.42.04-.39-.69-1.43-2.47-4.15-7.1-4.4-7.48-11.33-9.63-16.43-5.91-5.6,4.08-5.74,8.3-3.29,17.11,2.1,7.56,8.3,17.17,10.02,19.76.27.41.25.95-.04,1.34-5.01,6.79-8.92,10.59-13.1,14.32"/>
          </g>
        </g>
        <g>
          <ellipse class="st3" cx="623.25" cy="296.63" rx="10.26" ry="15.77" transform="translate(221.77 858.09) rotate(-79.88)"/>
          <ellipse class="st3" cx="481.93" cy="302.56" rx="15.77" ry="10.26" transform="translate(-44.36 86.18) rotate(-9.77)"/>
        </g>
        <g id="CHANGING_FACES">
          <g id="CHANGING_FACES1" data-name="CHANGING_FACES">
            <g id="happy_face">
              <path d="M548.04,385.41c-.53.51-1.35.52-1.92.05-.94-.78-2.35-2.47-5.35-3.58-3.46-1.28-5.69-.17-6.56,1.22-1.44,2.33.87,5.42,4.89,7.44,4.46,2.25,7.56,2.33,8.67,2.44s7.56-1.78,10.11-3.11,6-4.59,4-7.63-6.06-1.56-8.17-.78c-1.44.53-4.44,2.76-5.67,3.93Z"/>
              <g id="Happy_face">
                <g id="happy_eyes">
                  <path class="st7" d="M494.92,382.67c-5-6.38-9.64-13.18-23.21-13.09-14.04.09-19.54,7.5-23.21,11.83"/>
                  <path class="st7" d="M646.45,382.67c-5-6.38-9.64-13.18-23.21-13.09-14.04.09-19.54,7.5-23.21,11.83"/>
                </g>
                <g id="happy_mouth">
                  <path class="st0" d="M531.33,412.69s-.08,16.31,14.34,16.31c12.53,0,14.19-15.84,14.19-15.84l-13.99-6.27-14.55,5.8Z"/>
                  <path class="st6" d="M531.33,412.69s-.08,16.31,14.34,16.31c12.53,0,14.19-15.84,14.19-15.84"/>
                  <path class="st6" d="M515.32,403.67c3,3,7.89,7.44,14.44,7.78s12.89-4.89,16.11-4.56,8.22,5.44,17.89,5.78,12.78-2.78,15.11-4.5"/>
                </g>
              </g>
            </g>
          </g>
        </g>
      </g>
    </g>
  </g>
</svg>